<mxfile host="app.diagrams.net" modified="2021-12-07T17:56:13.833Z" agent="5.0 (Macintosh; Intel Mac OS X 10_15_7) AppleWebKit/605.1.15 (KHTML, like Gecko) Version/15.2 Safari/605.1.15" etag="AtM-iGkER8HbiDNS83VS" version="15.9.1" type="github">
  <diagram id="pR-02N04-xZHqkVR64Wo" name="Page-1">
    <mxGraphModel dx="1113" dy="792" grid="1" gridSize="10" guides="1" tooltips="1" connect="1" arrows="1" fold="1" page="1" pageScale="1" pageWidth="827" pageHeight="1169" math="0" shadow="0">
      <root>
        <mxCell id="0" />
        <mxCell id="1" parent="0" />
        <mxCell id="glctl3nwoHJ_dkgrtNUK-1" value="&lt;h2&gt;Calculating &amp;nbsp;difference with path information&lt;/h2&gt;" style="text;html=1;strokeColor=none;fillColor=none;align=center;verticalAlign=middle;whiteSpace=wrap;rounded=0;" vertex="1" parent="1">
          <mxGeometry x="216" y="60" width="396" height="30" as="geometry" />
        </mxCell>
        <mxCell id="glctl3nwoHJ_dkgrtNUK-8" style="edgeStyle=orthogonalEdgeStyle;rounded=0;orthogonalLoop=1;jettySize=auto;html=1;exitX=0.5;exitY=1;exitDx=0;exitDy=0;fontFamily=Helvetica;fontSize=16;fontColor=#000000;entryX=0.5;entryY=0;entryDx=0;entryDy=0;" edge="1" parent="1" source="glctl3nwoHJ_dkgrtNUK-2" target="glctl3nwoHJ_dkgrtNUK-9">
          <mxGeometry relative="1" as="geometry">
            <mxPoint x="400" y="330" as="targetPoint" />
          </mxGeometry>
        </mxCell>
        <mxCell id="glctl3nwoHJ_dkgrtNUK-2" value="&lt;div style=&quot;line-height: 18px ; font-size: 16px&quot;&gt;&lt;h4&gt;    0,0,0,0,0,0,0,&lt;br&gt;    0,0,0,0,0,0,0,&lt;br&gt;    0,0,0,0,0,0,0,&lt;br&gt;    0,0,0,0,0,0,0,&lt;br&gt;    0,0,0,0,0,0,0,&lt;/h4&gt;&lt;/div&gt;" style="whiteSpace=wrap;html=1;aspect=fixed;rounded=1;" vertex="1" parent="1">
          <mxGeometry x="216" y="140" width="150" height="150" as="geometry" />
        </mxCell>
        <mxCell id="glctl3nwoHJ_dkgrtNUK-10" style="edgeStyle=orthogonalEdgeStyle;rounded=0;orthogonalLoop=1;jettySize=auto;html=1;entryX=0.5;entryY=0;entryDx=0;entryDy=0;fontFamily=Helvetica;fontSize=16;fontColor=#000000;" edge="1" parent="1" source="glctl3nwoHJ_dkgrtNUK-3" target="glctl3nwoHJ_dkgrtNUK-9">
          <mxGeometry relative="1" as="geometry" />
        </mxCell>
        <mxCell id="glctl3nwoHJ_dkgrtNUK-3" value="&lt;div style=&quot;line-height: 18px ; font-size: 16px&quot;&gt;&lt;h4&gt;    0,0,0,0,0,0,0,&lt;br&gt;&lt;span style=&quot;background-color: rgb(255 , 255 , 153)&quot;&gt;1,1,1,1,1,1,1,&lt;/span&gt;&lt;br&gt;    0,0,0,0,0,0,0,&lt;br&gt;    0,0,0,0,0,0,0,&lt;br&gt;    0,0,0,0,0,0,0,&lt;/h4&gt;&lt;/div&gt;" style="whiteSpace=wrap;html=1;aspect=fixed;rounded=1;" vertex="1" parent="1">
          <mxGeometry x="450" y="140" width="150" height="150" as="geometry" />
        </mxCell>
        <mxCell id="glctl3nwoHJ_dkgrtNUK-4" value="" style="shape=flexArrow;endArrow=classic;html=1;rounded=0;fontFamily=Helvetica;fontSize=16;fontColor=#000000;entryX=0.8;entryY=0.4;entryDx=0;entryDy=0;entryPerimeter=0;" edge="1" parent="1">
          <mxGeometry width="50" height="50" relative="1" as="geometry">
            <mxPoint x="660" y="210" as="sourcePoint" />
            <mxPoint x="574" y="200" as="targetPoint" />
          </mxGeometry>
        </mxCell>
        <mxCell id="glctl3nwoHJ_dkgrtNUK-5" value="Changed" style="text;html=1;strokeColor=none;fillColor=none;align=center;verticalAlign=middle;whiteSpace=wrap;rounded=0;labelBackgroundColor=#FFFF99;fontFamily=Helvetica;fontSize=16;fontColor=#000000;" vertex="1" parent="1">
          <mxGeometry x="670" y="200" width="60" height="30" as="geometry" />
        </mxCell>
        <mxCell id="glctl3nwoHJ_dkgrtNUK-7" value="&lt;div style=&quot;line-height: 18px&quot;&gt;&lt;h4&gt;&lt;font size=&quot;3&quot; style=&quot;font-weight: normal&quot;&gt;[&lt;/font&gt;&lt;/h4&gt;&lt;h4&gt;&lt;font size=&quot;3&quot;&gt;&amp;nbsp;[ 0 ],&lt;/font&gt;&lt;/h4&gt;&lt;h4&gt;&lt;font size=&quot;3&quot;&gt;&amp;nbsp;[&lt;/font&gt;&lt;span style=&quot;font-size: medium&quot;&gt;7, 1, 1, 1,&lt;/span&gt;&lt;span style=&quot;font-size: medium&quot;&gt;1, 1, 1, 1&lt;/span&gt;&lt;span style=&quot;font-size: medium&quot;&gt;]&lt;/span&gt;&lt;/h4&gt;&lt;h4&gt;&lt;font size=&quot;3&quot; style=&quot;font-weight: normal&quot;&gt;]&lt;/font&gt;&lt;/h4&gt;&lt;/div&gt;" style="whiteSpace=wrap;html=1;aspect=fixed;rounded=1;connectable=0;" vertex="1" parent="1">
          <mxGeometry x="307" y="450" width="241" height="241" as="geometry" />
        </mxCell>
        <mxCell id="glctl3nwoHJ_dkgrtNUK-11" style="edgeStyle=orthogonalEdgeStyle;rounded=0;orthogonalLoop=1;jettySize=auto;html=1;fontFamily=Helvetica;fontSize=16;fontColor=#000000;" edge="1" parent="1" source="glctl3nwoHJ_dkgrtNUK-9" target="glctl3nwoHJ_dkgrtNUK-7">
          <mxGeometry relative="1" as="geometry" />
        </mxCell>
        <mxCell id="glctl3nwoHJ_dkgrtNUK-9" value="&lt;div style=&quot;line-height: 18px ; font-size: 16px&quot;&gt;&lt;h4&gt;Processor&lt;/h4&gt;&lt;/div&gt;" style="whiteSpace=wrap;html=1;rounded=1;" vertex="1" parent="1">
          <mxGeometry x="352" y="330" width="151" height="60" as="geometry" />
        </mxCell>
        <mxCell id="glctl3nwoHJ_dkgrtNUK-12" value="" style="endArrow=classic;html=1;rounded=0;fontFamily=Helvetica;fontSize=16;fontColor=#000000;" edge="1" parent="1">
          <mxGeometry width="50" height="50" relative="1" as="geometry">
            <mxPoint x="258" y="500" as="sourcePoint" />
            <mxPoint x="408" y="550" as="targetPoint" />
          </mxGeometry>
        </mxCell>
        <mxCell id="glctl3nwoHJ_dkgrtNUK-13" value="" style="endArrow=classic;html=1;rounded=0;fontFamily=Helvetica;fontSize=16;fontColor=#000000;strokeColor=#FF3333;" edge="1" parent="1">
          <mxGeometry width="50" height="50" relative="1" as="geometry">
            <mxPoint x="238" y="654.5" as="sourcePoint" />
            <mxPoint x="358" y="590" as="targetPoint" />
          </mxGeometry>
        </mxCell>
        <mxCell id="glctl3nwoHJ_dkgrtNUK-14" value="" style="ellipse;whiteSpace=wrap;html=1;aspect=fixed;rounded=1;labelBackgroundColor=#FFFF99;fontFamily=Helvetica;fontSize=16;fontColor=#000000;fillColor=none;strokeColor=#FF3333;" vertex="1" parent="1">
          <mxGeometry x="348" y="568" width="34" height="34" as="geometry" />
        </mxCell>
        <mxCell id="glctl3nwoHJ_dkgrtNUK-15" value="" style="rounded=1;whiteSpace=wrap;html=1;labelBackgroundColor=#FFFF99;fontFamily=Helvetica;fontSize=16;fontColor=#000000;strokeColor=#0000FF;fillColor=none;" vertex="1" parent="1">
          <mxGeometry x="382" y="577" width="116" height="23" as="geometry" />
        </mxCell>
        <mxCell id="glctl3nwoHJ_dkgrtNUK-16" value="" style="endArrow=classic;html=1;rounded=0;fontFamily=Helvetica;fontSize=16;fontColor=#000000;strokeColor=#0000FF;" edge="1" parent="1">
          <mxGeometry width="50" height="50" relative="1" as="geometry">
            <mxPoint x="598" y="585" as="sourcePoint" />
            <mxPoint x="498" y="585" as="targetPoint" />
          </mxGeometry>
        </mxCell>
        <mxCell id="glctl3nwoHJ_dkgrtNUK-18" value="&lt;font style=&quot;font-size: 13px&quot;&gt;Size difference of the length of the new array minus the old array. this indicates if and by how much the new array needs to grow or shrink.&lt;/font&gt;" style="text;html=1;strokeColor=#666666;fillColor=#f5f5f5;align=center;verticalAlign=middle;whiteSpace=wrap;rounded=0;labelBackgroundColor=#FFFFFF;fontFamily=Helvetica;fontSize=16;fontColor=#333333;" vertex="1" parent="1">
          <mxGeometry x="138" y="440" width="150" height="122" as="geometry" />
        </mxCell>
        <mxCell id="glctl3nwoHJ_dkgrtNUK-19" value="&lt;font style=&quot;font-size: 13px&quot;&gt;The position at which to start laying the new data in the array. here it is indicated that the subsequent numbers are to be placed starting at index 7&lt;/font&gt;" style="text;html=1;strokeColor=#666666;fillColor=#f5f5f5;align=center;verticalAlign=middle;whiteSpace=wrap;rounded=0;labelBackgroundColor=#FFFFFF;fontFamily=Helvetica;fontSize=16;fontColor=#333333;" vertex="1" parent="1">
          <mxGeometry x="88" y="610" width="150" height="140" as="geometry" />
        </mxCell>
        <mxCell id="glctl3nwoHJ_dkgrtNUK-20" value="&lt;font style=&quot;font-size: 13px&quot;&gt;The data to be placed &amp;nbsp;starting at the supplied index.&lt;/font&gt;" style="text;html=1;strokeColor=#666666;fillColor=#f5f5f5;align=center;verticalAlign=middle;whiteSpace=wrap;rounded=0;labelBackgroundColor=#FFFFFF;fontFamily=Helvetica;fontSize=16;fontColor=#333333;" vertex="1" parent="1">
          <mxGeometry x="580" y="552" width="150" height="65" as="geometry" />
        </mxCell>
        <mxCell id="glctl3nwoHJ_dkgrtNUK-21" value="Old array" style="text;html=1;strokeColor=none;fillColor=none;align=center;verticalAlign=middle;whiteSpace=wrap;rounded=0;labelBackgroundColor=#FFFFFF;fontFamily=Helvetica;fontSize=13;fontColor=#000000;" vertex="1" parent="1">
          <mxGeometry x="261" y="109" width="60" height="30" as="geometry" />
        </mxCell>
        <mxCell id="glctl3nwoHJ_dkgrtNUK-22" value="New array" style="text;html=1;strokeColor=none;fillColor=none;align=center;verticalAlign=middle;whiteSpace=wrap;rounded=0;labelBackgroundColor=#FFFFFF;fontFamily=Helvetica;fontSize=13;fontColor=#000000;" vertex="1" parent="1">
          <mxGeometry x="494" y="110" width="62" height="30" as="geometry" />
        </mxCell>
      </root>
    </mxGraphModel>
  </diagram>
</mxfile>
